<!DOCTYPE svg PUBLIC "-//W3C//DTD SVG 20010904//EN" "http://www.w3.org/TR/2001/REC-SVG-20010904/DTD/svg10.dtd">
<svg version="1.0" xmlns="http://www.w3.org/2000/svg" width="1200px" height="72px" viewBox="0 0 12000 720" preserveAspectRatio="xMidYMid meet">
<g id="layer101" fill="#fd0000" stroke="none">
 <path d="M4182 603 c2 -30 8 -39 25 -41 44 -6 48 -24 51 -234 l4 -198 49 0 49 0 0 210 c0 232 -5 257 -60 285 -16 8 -50 15 -75 15 l-46 0 3 -37z"/>
 <path d="M200 524 c-77 -34 -110 -91 -110 -194 0 -141 70 -210 213 -210 35 0 78 5 96 11 28 10 31 15 31 55 0 48 -3 50 -40 29 -14 -8 -47 -14 -75 -14 -80 -1 -115 39 -115 129 0 90 35 130 115 129 28 0 61 -6 75 -14 37 -21 40 -19 40 29 0 40 -3 45 -31 55 -45 16 -158 13 -199 -5z"/>
 <path d="M543 529 c-31 -9 -33 -12 -33 -54 0 -50 2 -51 53 -30 39 16 124 20 145 6 8 -4 12 -19 10 -32 -3 -20 -14 -27 -83 -46 -102 -28 -125 -52 -125 -128 0 -46 5 -60 29 -87 26 -30 35 -33 100 -36 39 -2 91 -1 116 2 l45 7 0 46 c0 42 -1 45 -22 38 -13 -4 -51 -9 -85 -12 -53 -5 -64 -3 -69 12 -12 30 10 48 77 65 112 28 129 45 129 132 0 97 -43 128 -172 127 -46 0 -98 -5 -115 -10z"/>
 <path d="M923 529 c-31 -9 -33 -12 -33 -54 0 -50 2 -51 53 -30 39 16 124 20 145 6 8 -4 12 -19 10 -32 -3 -20 -14 -27 -83 -46 -102 -28 -125 -52 -125 -128 0 -46 5 -60 29 -87 26 -30 35 -33 100 -36 39 -2 91 -1 116 2 l45 7 0 46 c0 42 -1 45 -22 38 -13 -4 -51 -9 -85 -12 -53 -5 -64 -3 -69 12 -12 30 10 48 77 65 112 28 129 45 129 132 0 97 -43 128 -172 127 -46 0 -98 -5 -115 -10z"/>
 <path d="M4483 529 c-31 -9 -33 -12 -33 -54 0 -50 2 -51 53 -30 39 16 124 20 145 6 8 -4 12 -19 10 -32 -3 -20 -14 -27 -83 -46 -102 -28 -125 -52 -125 -128 0 -46 5 -60 29 -87 26 -30 35 -33 100 -36 39 -2 91 -1 116 2 l45 7 0 46 c0 42 -1 45 -22 38 -13 -4 -51 -9 -85 -12 -53 -5 -64 -3 -69 12 -12 30 10 48 77 65 112 28 129 45 129 132 0 97 -43 128 -172 127 -46 0 -98 -5 -115 -10z"/>
 <path d="M5493 529 c-31 -9 -33 -12 -33 -54 0 -50 2 -51 53 -30 39 16 124 20 145 6 8 -4 12 -19 10 -32 -3 -20 -14 -27 -83 -46 -102 -28 -125 -52 -125 -128 0 -46 5 -60 29 -87 26 -30 35 -33 100 -36 39 -2 91 -1 116 2 l45 7 0 46 c0 42 -1 45 -22 38 -13 -4 -51 -9 -85 -12 -53 -5 -64 -3 -69 12 -12 30 10 48 77 65 112 28 129 45 129 132 0 97 -43 128 -172 127 -46 0 -98 -5 -115 -10z"/>
 <path d="M6323 529 c-31 -9 -33 -12 -33 -54 0 -50 2 -51 53 -30 39 16 124 20 145 6 8 -4 12 -19 10 -32 -3 -20 -14 -27 -83 -46 -102 -28 -125 -52 -125 -128 0 -46 5 -60 29 -87 26 -30 35 -33 100 -36 39 -2 91 -1 116 2 l45 7 0 46 c0 42 -1 45 -22 38 -13 -4 -51 -9 -85 -12 -53 -5 -64 -3 -69 12 -12 30 10 48 77 65 112 28 129 45 129 132 0 97 -43 128 -172 127 -46 0 -98 -5 -115 -10z"/>
 <path d="M6703 529 c-31 -9 -33 -12 -33 -54 0 -50 2 -51 53 -30 39 16 124 20 145 6 8 -4 12 -19 10 -32 -3 -20 -14 -27 -83 -46 -102 -28 -125 -52 -125 -128 0 -46 5 -60 29 -87 26 -30 35 -33 100 -36 39 -2 91 -1 116 2 l45 7 0 46 c0 42 -1 45 -22 38 -13 -4 -51 -9 -85 -12 -53 -5 -64 -3 -69 12 -12 30 10 48 77 65 112 28 129 45 129 132 0 97 -43 128 -172 127 -46 0 -98 -5 -115 -10z"/>
 <path d="M8253 529 c-31 -9 -33 -12 -33 -54 0 -50 2 -51 53 -30 39 16 124 20 145 6 8 -4 12 -19 10 -32 -3 -20 -14 -27 -83 -46 -102 -28 -125 -52 -125 -128 0 -46 5 -60 29 -87 26 -30 35 -33 100 -36 39 -2 91 -1 116 2 l45 7 0 46 c0 42 -1 45 -22 38 -13 -4 -51 -9 -85 -12 -53 -5 -64 -3 -69 12 -12 30 10 48 77 65 112 28 129 45 129 132 0 97 -43 128 -172 127 -46 0 -98 -5 -115 -10z"/>
 <path d="M8633 529 c-31 -9 -33 -12 -33 -54 0 -50 2 -51 53 -30 39 16 124 20 145 6 8 -4 12 -19 10 -32 -3 -20 -14 -27 -83 -46 -102 -28 -125 -52 -125 -128 0 -46 5 -60 29 -87 26 -30 35 -33 100 -36 39 -2 91 -1 116 2 l45 7 0 46 c0 42 -1 45 -22 38 -13 -4 -51 -9 -85 -12 -53 -5 -64 -3 -69 12 -12 30 10 48 77 65 112 28 129 45 129 132 0 97 -43 128 -172 127 -46 0 -98 -5 -115 -10z"/>
 <path d="M9643 529 c-31 -9 -33 -12 -33 -54 0 -50 2 -51 53 -30 39 16 124 20 145 6 8 -4 12 -19 10 -32 -3 -20 -14 -27 -83 -46 -102 -28 -125 -52 -125 -128 0 -46 5 -60 29 -87 26 -30 35 -33 100 -36 39 -2 91 -1 116 2 l45 7 0 46 c0 42 -1 45 -22 38 -13 -4 -51 -9 -85 -12 -53 -5 -64 -3 -69 12 -12 30 10 48 77 65 112 28 129 45 129 132 0 97 -43 128 -172 127 -46 0 -98 -5 -115 -10z"/>
 <path d="M11193 520 c-56 -34 -63 -61 -63 -235 l0 -155 50 0 50 0 0 113 c1 126 11 195 31 208 8 5 28 9 44 9 17 0 36 -4 44 -9 20 -13 30 -82 31 -208 l0 -113 50 0 50 0 0 158 c0 178 -10 211 -75 238 -52 21 -173 18 -212 -6z"/>
 <path d="M11603 529 c-31 -9 -33 -12 -33 -54 0 -50 2 -51 53 -30 39 16 124 20 145 6 8 -4 12 -19 10 -32 -3 -20 -14 -27 -83 -46 -102 -28 -125 -52 -125 -128 0 -46 5 -60 29 -87 26 -30 35 -33 100 -36 39 -2 91 -1 116 2 l45 7 0 46 c0 42 -1 45 -22 38 -13 -4 -51 -9 -85 -12 -53 -5 -64 -3 -69 12 -12 30 10 48 77 65 112 28 129 45 129 132 0 97 -43 128 -172 127 -46 0 -98 -5 -115 -10z"/>
 <path d="M1910 330 l0 -200 50 0 50 0 0 80 0 80 80 0 80 0 0 -80 0 -80 50 0 50 0 0 200 0 200 -50 0 -50 0 0 -85 0 -85 -80 0 -80 0 0 85 0 85 -50 0 -50 0 0 -200z"/>
 <path d="M2460 365 l0 -165 -65 0 -65 0 0 -35 0 -35 180 0 180 0 0 35 0 35 -65 0 -65 0 0 165 0 165 -50 0 -50 0 0 -165z"/>
 <path d="M2750 330 l0 -201 72 3 71 3 41 96 41 97 41 -97 41 -96 71 -3 72 -3 0 201 0 200 -50 0 -50 0 0 -137 -1 -138 -41 98 -42 97 -41 0 -41 0 -42 -97 -41 -98 -1 138 0 137 -50 0 -50 0 0 -200z"/>
 <path d="M3300 330 l0 -200 50 0 50 0 0 165 0 165 95 0 95 0 0 35 0 35 -145 0 -145 0 0 -200z"/>
 <path d="M5820 521 c0 -5 32 -95 71 -200 l71 -191 68 0 68 0 71 191 c39 105 71 195 71 200 0 5 -25 9 -55 9 l-54 0 -12 -40 -12 -40 -77 0 -77 0 -12 40 -12 40 -54 0 c-30 0 -55 -4 -55 -9z m237 -206 c-12 -36 -25 -61 -29 -57 -4 4 -16 33 -27 65 l-20 57 49 0 48 0 -21 -65z"/>
 <path d="M7500 330 l0 -200 50 0 50 0 0 165 0 165 95 0 95 0 0 35 0 35 -145 0 -145 0 0 -200z"/>
 <path d="M7850 330 l0 -200 140 0 140 0 0 35 0 35 -90 0 -90 0 0 45 0 45 85 0 85 0 0 35 0 35 -85 0 -85 0 0 50 0 50 95 0 95 0 0 35 0 35 -145 0 -145 0 0 -200z"/>
 <path d="M10110 365 l0 -165 -65 0 -65 0 0 -35 0 -35 180 0 180 0 0 35 0 35 -65 0 -65 0 0 165 0 165 -50 0 -50 0 0 -165z"/>
 <path d="M10500 452 l0 -79 -75 -116 c-41 -63 -75 -118 -75 -121 0 -3 27 -6 59 -6 l60 0 36 60 c20 33 40 60 44 60 5 0 25 -27 45 -60 l37 -60 60 0 c32 0 59 3 59 6 0 3 -34 58 -75 121 l-75 116 0 79 0 78 -50 0 -50 0 0 -78z"/>
 <path d="M10800 330 l0 -200 50 0 50 0 0 165 0 165 95 0 95 0 0 35 0 35 -145 0 -145 0 0 -200z"/>
 <path d="M1470 370 l0 -40 85 0 85 0 0 40 0 40 -85 0 -85 0 0 -40z"/>
 <path d="M3820 370 l0 -40 85 0 85 0 0 40 0 40 -85 0 -85 0 0 -40z"/>
 <path d="M5030 370 l0 -40 85 0 85 0 0 40 0 40 -85 0 -85 0 0 -40z"/>
 <path d="M7060 370 l0 -40 85 0 85 0 0 40 0 40 -85 0 -85 0 0 -40z"/>
 <path d="M9180 370 l0 -40 85 0 85 0 0 40 0 40 -85 0 -85 0 0 -40z"/>
 </g>

</svg>