<svg version="1.0" xmlns="http://www.w3.org/2000/svg" width="1200" height="72" viewBox="0 0 12000 720"><path d="M4182 603c2-30 8-39 25-41 44-6 48-24 51-234l4-198h98v210c0 232-5 257-60 285-16 8-50 15-75 15h-46l3-37zM200 524c-77-34-110-91-110-194 0-141 70-210 213-210 35 0 78 5 96 11 28 10 31 15 31 55 0 48-3 50-40 29-14-8-47-14-75-14-80-1-115 39-115 129s35 130 115 129c28 0 61-6 75-14 37-21 40-19 40 29 0 40-3 45-31 55-45 16-158 13-199-5zm343 5c-31-9-33-12-33-54 0-50 2-51 53-30 39 16 124 20 145 6 8-4 12-19 10-32-3-20-14-27-83-46-102-28-125-52-125-128 0-46 5-60 29-87 26-30 35-33 100-36 39-2 91-1 116 2l45 7v46c0 42-1 45-22 38-13-4-51-9-85-12-53-5-64-3-69 12-12 30 10 48 77 65 112 28 129 45 129 132 0 97-43 128-172 127-46 0-98-5-115-10zm380 0c-31-9-33-12-33-54 0-50 2-51 53-30 39 16 124 20 145 6 8-4 12-19 10-32-3-20-14-27-83-46-102-28-125-52-125-128 0-46 5-60 29-87 26-30 35-33 100-36 39-2 91-1 116 2l45 7v46c0 42-1 45-22 38-13-4-51-9-85-12-53-5-64-3-69 12-12 30 10 48 77 65 112 28 129 45 129 132 0 97-43 128-172 127-46 0-98-5-115-10zm3560 0c-31-9-33-12-33-54 0-50 2-51 53-30 39 16 124 20 145 6 8-4 12-19 10-32-3-20-14-27-83-46-102-28-125-52-125-128 0-46 5-60 29-87 26-30 35-33 100-36 39-2 91-1 116 2l45 7v46c0 42-1 45-22 38-13-4-51-9-85-12-53-5-64-3-69 12-12 30 10 48 77 65 112 28 129 45 129 132 0 97-43 128-172 127-46 0-98-5-115-10zm1010 0c-31-9-33-12-33-54 0-50 2-51 53-30 39 16 124 20 145 6 8-4 12-19 10-32-3-20-14-27-83-46-102-28-125-52-125-128 0-46 5-60 29-87 26-30 35-33 100-36 39-2 91-1 116 2l45 7v46c0 42-1 45-22 38-13-4-51-9-85-12-53-5-64-3-69 12-12 30 10 48 77 65 112 28 129 45 129 132 0 97-43 128-172 127-46 0-98-5-115-10zm830 0c-31-9-33-12-33-54 0-50 2-51 53-30 39 16 124 20 145 6 8-4 12-19 10-32-3-20-14-27-83-46-102-28-125-52-125-128 0-46 5-60 29-87 26-30 35-33 100-36 39-2 91-1 116 2l45 7v46c0 42-1 45-22 38-13-4-51-9-85-12-53-5-64-3-69 12-12 30 10 48 77 65 112 28 129 45 129 132 0 97-43 128-172 127-46 0-98-5-115-10zm380 0c-31-9-33-12-33-54 0-50 2-51 53-30 39 16 124 20 145 6 8-4 12-19 10-32-3-20-14-27-83-46-102-28-125-52-125-128 0-46 5-60 29-87 26-30 35-33 100-36 39-2 91-1 116 2l45 7v46c0 42-1 45-22 38-13-4-51-9-85-12-53-5-64-3-69 12-12 30 10 48 77 65 112 28 129 45 129 132 0 97-43 128-172 127-46 0-98-5-115-10zm1550 0c-31-9-33-12-33-54 0-50 2-51 53-30 39 16 124 20 145 6 8-4 12-19 10-32-3-20-14-27-83-46-102-28-125-52-125-128 0-46 5-60 29-87 26-30 35-33 100-36 39-2 91-1 116 2l45 7v46c0 42-1 45-22 38-13-4-51-9-85-12-53-5-64-3-69 12-12 30 10 48 77 65 112 28 129 45 129 132 0 97-43 128-172 127-46 0-98-5-115-10zm380 0c-31-9-33-12-33-54 0-50 2-51 53-30 39 16 124 20 145 6 8-4 12-19 10-32-3-20-14-27-83-46-102-28-125-52-125-128 0-46 5-60 29-87 26-30 35-33 100-36 39-2 91-1 116 2l45 7v46c0 42-1 45-22 38-13-4-51-9-85-12-53-5-64-3-69 12-12 30 10 48 77 65 112 28 129 45 129 132 0 97-43 128-172 127-46 0-98-5-115-10zm1010 0c-31-9-33-12-33-54 0-50 2-51 53-30 39 16 124 20 145 6 8-4 12-19 10-32-3-20-14-27-83-46-102-28-125-52-125-128 0-46 5-60 29-87 26-30 35-33 100-36 39-2 91-1 116 2l45 7v46c0 42-1 45-22 38-13-4-51-9-85-12-53-5-64-3-69 12-12 30 10 48 77 65 112 28 129 45 129 132 0 97-43 128-172 127-46 0-98-5-115-10zm1550-9c-56-34-63-61-63-235V130h100v113c1 126 11 195 31 208 8 5 28 9 44 9 17 0 36-4 44-9 20-13 30-82 31-208V130h100v158c0 178-10 211-75 238-52 21-173 18-212-6zm410 9c-31-9-33-12-33-54 0-50 2-51 53-30 39 16 124 20 145 6 8-4 12-19 10-32-3-20-14-27-83-46-102-28-125-52-125-128 0-46 5-60 29-87 26-30 35-33 100-36 39-2 91-1 116 2l45 7v46c0 42-1 45-22 38-13-4-51-9-85-12-53-5-64-3-69 12-12 30 10 48 77 65 112 28 129 45 129 132 0 97-43 128-172 127-46 0-98-5-115-10zM1910 330V130h100v160h160V130h100v400h-100V360h-160v170h-100V330zm550 35V200h-130v-70h360v70h-130v330h-100V365zm290-35V129l72 3 71 3 41 96 41 97 41-97 41-96 71-3 72-3v401h-100V393l-1-138-41 98-42 97h-82l-42-97-41-98-1 138v137h-100V330zm550 0V130h100v330h190v70h-290V330zm2520 191c0-5 32-95 71-200l71-191h136l71 191c39 105 71 195 71 200s-25 9-55 9h-54l-12-40-12-40h-154l-12 40-12 40h-54c-30 0-55-4-55-9zm237-206c-12-36-25-61-29-57s-16 33-27 65l-20 57h97l-21-65zm1443 15V130h100v330h190v70h-290V330zm350 0V130h280v70h-180v90h170v70h-170v100h190v70h-290V330zm2260 35V200h-130v-70h360v70h-130v330h-100V365zm390 87v-79l-75-116c-41-63-75-118-75-121s27-6 59-6h60l36 60c20 33 40 60 44 60 5 0 25-27 45-60l37-60h60c32 0 59 3 59 6s-34 58-75 121l-75 116v157h-100v-78zm300-122V130h100v330h190v70h-290V330zm-9330 40v-40h170v80h-170v-40zm2350 0v-40h170v80h-170v-40zm1210 0v-40h170v80h-170v-40zm2030 0v-40h170v80h-170v-40zm2120 0v-40h170v80h-170v-40z" fill="#fd0000"/></svg>